<?xml version="1.0" encoding="utf-8"?>
<!-- Generator: Adobe Illustrator 23.0.1, SVG Export Plug-In . SVG Version: 6.00 Build 0)  -->
<svg version="1.1" id="Layer_1" xmlns="http://www.w3.org/2000/svg" xmlns:xlink="http://www.w3.org/1999/xlink" x="0px" y="0px"
	 viewBox="0 0 390 418" style="enable-background:new 0 0 390 418;" xml:space="preserve">
<style type="text/css">
	.st0{fill:#C1426D;}
</style>
<path class="st0" d="M250.6,417.5H148.7c-5.1,0-9.3-4.1-9.3-9.3v-95.9c-45.2-21.4-74.1-66.8-74.1-117.2
	c0-71.5,58.2-129.7,129.7-129.7s129.7,58.2,129.7,129.7c0,46.6-24.7,89.2-64.9,112.4v100.8C259.9,413.3,255.7,417.5,250.6,417.5z
	 M157.9,399h83.4v-97c0-3.5,1.9-6.6,5-8.2c36.9-19.3,59.9-57.1,59.9-98.7c0-61.3-49.9-111.2-111.2-111.2S83.8,133.8,83.8,195.1
	c0,45,26.9,85.3,68.4,102.7c3.5,1.4,5.7,4.8,5.7,8.6V399z"/>
<path class="st0" d="M287.7,389.7H111.6c-5.1,0-9.3-4.1-9.3-9.3c0-5.1,4.1-9.3,9.3-9.3h176.1c5.1,0,9.3,4.1,9.3,9.3
	C296.9,385.5,292.8,389.7,287.7,389.7z"/>
<path class="st0" d="M287.7,361.9H111.6c-5.1,0-9.3-4.1-9.3-9.3c0-5.1,4.1-9.3,9.3-9.3h176.1c5.1,0,9.3,4.1,9.3,9.3
	C296.9,357.7,292.8,361.9,287.7,361.9z"/>
<path class="st0" d="M335.8,324.8c-2.1,0-4.3-0.7-6-2.2c-3.9-3.3-4.3-9.2-1-13.1c27.3-31.8,42.3-72.5,42.3-114.4
	C371.1,98,292.1,19,195,19S18.9,98,18.9,195.1c0,42,15,82.6,42.3,114.4c3.3,3.9,2.9,9.7-1,13.1c-3.9,3.3-9.7,2.9-13.1-1
	C17,286.4,0.4,241.5,0.4,195.1C0.4,87.8,87.7,0.5,195,0.5s194.6,87.3,194.6,194.6c0,46.4-16.6,91.3-46.7,126.5
	C341,323.7,338.5,324.8,335.8,324.8z"/>
<path class="st0" d="M142.6,261c-6.7,0-10.8-2.7-13.1-5c-7.8-7.8-6.4-21.3,4.2-40c8.4-14.9,22.1-32.2,38.4-48.5
	c21.9-21.9,54.8-47.6,75.4-47.6c6.7,0,10.8,2.7,13.1,5c7.8,7.8,6.4,21.3-4.2,40c-8.4,14.9-22.1,32.2-38.4,48.5
	C196,235.3,163.1,261,142.6,261z M247,138.5c-8.8,0.4-33.3,13.5-61.8,42.1c-31,31-41.9,54.8-42.2,61.8c8.8-0.4,33.3-13.5,61.8-42.1
	C235.8,169.3,246.8,145.5,247,138.5z"/>
<path class="st0" d="M247.4,261c-20.5,0-53.4-25.6-75.4-47.6c-16.3-16.3-30-33.5-38.4-48.5c-10.6-18.7-12-32.2-4.2-40
	c2.3-2.3,6.4-5,13.1-5c20.5,0,53.4,25.6,75.4,47.6c16.3,16.3,30,33.5,38.4,48.5c10.6,18.7,12,32.2,4.2,40
	C258.3,258.3,254.1,261,247.4,261z M143,138.5c0.2,7,11.2,30.8,42.2,61.8c28.6,28.6,53.1,41.7,61.8,42.1c-0.2-7-11.2-30.8-42.2-61.8
	C176.3,152.1,151.8,138.9,143,138.5z"/>
<path class="st0" d="M213.5,361.9c-5.1,0-9.3-4.1-9.3-9.3v-74.1c0-5.1,4.1-9.3,9.3-9.3c5.1,0,9.3,4.1,9.3,9.3v74.1
	C222.8,357.7,218.6,361.9,213.5,361.9z"/>
<path class="st0" d="M185.7,361.9c-5.1,0-9.3-4.1-9.3-9.3v-74.1c0-5.1,4.1-9.3,9.3-9.3s9.3,4.1,9.3,9.3v74.1
	C195,357.7,190.9,361.9,185.7,361.9z"/>
</svg>
