<?xml version="1.0" encoding="utf-8"?>
<!-- Generator: Adobe Illustrator 23.0.1, SVG Export Plug-In . SVG Version: 6.00 Build 0)  -->
<svg version="1.1" id="Layer_1" xmlns="http://www.w3.org/2000/svg" xmlns:xlink="http://www.w3.org/1999/xlink" x="0px" y="0px"
	 viewBox="0 0 455 436" style="enable-background:new 0 0 455 436;" xml:space="preserve">
<style type="text/css">
	.st0{fill:#3D92CC;}
</style>
<path class="st0" d="M231.7,231.7H55.6c-5.1,0-9.3-4.1-9.3-9.3V9.3c0-5.1,4.1-9.3,9.3-9.3h113c39.9,0,72.3,32.4,72.3,72.3v150.1
	C240.9,227.5,236.8,231.7,231.7,231.7z M64.9,213.1h157.5V72.3c0-29.6-24.1-53.7-53.7-53.7H64.9V213.1z"/>
<path class="st0" d="M407.7,231.7H231.7c-5.1,0-9.3-4.1-9.3-9.3V72.3c0-39.9,32.4-72.3,72.3-72.3h113.1c5.1,0,9.3,4.1,9.3,9.3v213.1
	C417,227.5,412.8,231.7,407.7,231.7z M240.9,213.1h157.5V18.5H294.7c-29.6,0-53.7,24.1-53.7,53.7L240.9,213.1L240.9,213.1z"/>
<path class="st0" d="M370.7,185.3H268.7c-5.1,0-9.3-4.1-9.3-9.3v-55.6c0-5.1,4.1-9.3,9.3-9.3h101.9c5.1,0,9.3,4.1,9.3,9.3v55.6
	C379.9,181.2,375.8,185.3,370.7,185.3z M278,166.8h83.4v-37.1H278V166.8L278,166.8z"/>
<path class="st0" d="M370.7,101.9H268.7c-5.1,0-9.3-4.1-9.3-9.3c0-5.1,4.1-9.3,9.3-9.3h101.9c5.1,0,9.3,4.1,9.3,9.3
	C379.9,97.8,375.8,101.9,370.7,101.9z"/>
<path class="st0" d="M370.7,74.1H268.7c-5.1,0-9.3-4.1-9.3-9.3c0-5.1,4.1-9.3,9.3-9.3h101.9c5.1,0,9.3,4.1,9.3,9.3
	C379.9,70,375.8,74.1,370.7,74.1z"/>
<path class="st0" d="M194.6,74.1H92.7c-5.1,0-9.3-4.1-9.3-9.3c0-5.1,4.1-9.3,9.3-9.3h101.9c5.1,0,9.3,4.1,9.3,9.3
	C203.9,70,199.7,74.1,194.6,74.1z"/>
<path class="st0" d="M148.3,101.9H92.7c-5.1,0-9.3-4.1-9.3-9.3c0-5.1,4.1-9.3,9.3-9.3h55.6c5.1,0,9.3,4.1,9.3,9.3
	C157.5,97.8,153.4,101.9,148.3,101.9z"/>
<path class="st0" d="M194.6,129.7H139c-5.1,0-9.3-4.1-9.3-9.3c0-5.1,4.1-9.3,9.3-9.3h55.6c5.1,0,9.3,4.1,9.3,9.3
	C203.9,125.6,199.7,129.7,194.6,129.7z"/>
<path class="st0" d="M101.9,131.6h-9.3c-5.1,0-9.3-4.1-9.3-9.3c0-5.1,4.1-9.3,9.3-9.3h9.3c5.1,0,9.3,4.1,9.3,9.3
	C111.2,127.4,107,131.6,101.9,131.6z"/>
<path class="st0" d="M194.6,185.3H92.7c-5.1,0-9.3-4.1-9.3-9.3s4.1-9.3,9.3-9.3h101.9c5.1,0,9.3,4.1,9.3,9.3
	S199.7,185.3,194.6,185.3z"/>
<path class="st0" d="M444.8,268.7H259.5c-2.9,0-5.7-1.4-7.4-3.7L224.2,228c-3.1-4.1-2.2-9.9,1.9-13c4.1-3.1,9.9-2.2,13,1.9l25,33.4
	h171.4V55.6c0-5.1,4.1-9.3,9.3-9.3c5.1,0,9.3,4.1,9.3,9.3v203.9C454.1,264.6,449.9,268.7,444.8,268.7z"/>
<path class="st0" d="M231.7,435.5c-5.1,0-9.3-4.1-9.3-9.3V250.2L211.3,265c-1.8,2.3-4.5,3.7-7.4,3.7H18.5c-5.1,0-9.3-4.1-9.3-9.3
	V55.6c0-5.1,4.1-9.3,9.3-9.3s9.3,4.1,9.3,9.3v194.6h171.4l25-33.4c2.4-3.2,6.6-4.5,10.3-3.2c3.8,1.3,6.3,4.8,6.3,8.8v203.9
	C240.9,431.4,236.8,435.5,231.7,435.5z"/>
<path class="st0" d="M111.2,139H92.7v18.5h18.5V139z"/>
<path class="st0" d="M139,139h-18.5v18.5H139V139z"/>
<path class="st0" d="M166.8,139h-18.5v18.5h18.5V139z"/>
<path class="st0" d="M194.6,139h-18.5v18.5h18.5V139z"/>
<path class="st0" d="M398.5,435.5H64.9c-5.1,0-9.3-4.1-9.3-9.3c0-5.1,4.1-9.3,9.3-9.3h333.6c5.1,0,9.3,4.1,9.3,9.3
	C407.7,431.4,403.6,435.5,398.5,435.5z"/>
<path class="st0" d="M242.6,344.4c-3.8,0-7.8-0.4-11.7-1.1c-3.8-0.7-6.7-3.6-7.4-7.4c-1.4-7.5-1.5-14.7-0.3-21.4
	c1.7-9.5,6-17.9,12.4-24.3c6.3-6.3,14.5-10.5,23.7-12.3c6.9-1.3,14.4-1.3,22.1,0.2c3.8,0.7,6.7,3.6,7.4,7.4
	c1.4,7.6,1.5,14.9,0.2,21.7c-1.7,9.4-6,17.7-12.3,24c-6.5,6.5-15,10.8-24.6,12.4C249,344.1,245.8,344.4,242.6,344.4z M241,325.8
	c0.6,0,1.1,0,1.7,0c2.2,0,4.3-0.2,6.3-0.5c5.9-1,10.8-3.5,14.7-7.3c3.7-3.7,6.2-8.5,7.2-14.3c0.5-2.6,0.7-5.4,0.6-8.3
	c-3-0.1-5.9,0.1-8.5,0.6c-5.6,1.1-10.4,3.5-14.1,7.2c-3.8,3.8-6.2,8.6-7.2,14.5C241,320.2,240.8,323,241,325.8z"/>
<path class="st0" d="M220.7,391.8c-3.2,0-6.4-0.3-9.4-0.8c-9.6-1.7-18.1-6-24.6-12.4c-6.3-6.3-10.6-14.6-12.3-24
	c-1.3-6.9-1.2-14.2,0.2-21.7c0.7-3.8,3.6-6.7,7.4-7.4c7.6-1.4,15.2-1.5,22.1-0.2c9.2,1.8,17.4,6,23.7,12.3
	c6.4,6.4,10.7,14.8,12.4,24.3c1.2,6.8,1.1,14-0.3,21.5c-0.7,3.8-3.6,6.7-7.4,7.4C228.4,391.5,224.5,391.8,220.7,391.8z M192,342.9
	c-0.1,2.9,0.1,5.7,0.6,8.3c1.1,5.7,3.5,10.5,7.2,14.3c3.8,3.8,8.7,6.3,14.7,7.3c2.5,0.4,5.2,0.6,8,0.5c0.1-2.8-0.1-5.6-0.5-8.2
	c-1-5.8-3.5-10.7-7.2-14.5c-3.7-3.7-8.4-6.1-14.1-7.2C197.8,343,195,342.8,192,342.9z"/>
<path class="st0" d="M444.8,389.2h-92.7c-5.1,0-9.3-4.1-9.3-9.3c0-5.1,4.1-9.3,9.3-9.3h92.7c5.1,0,9.3,4.1,9.3,9.3
	C454.1,385,449.9,389.2,444.8,389.2z"/>
<path class="st0" d="M398.5,361.4h-92.7c-5.1,0-9.3-4.1-9.3-9.3c0-5.1,4.1-9.3,9.3-9.3h92.7c5.1,0,9.3,4.1,9.3,9.3
	C407.7,357.2,403.6,361.4,398.5,361.4z"/>
<path class="st0" d="M148.3,389.2H55.6c-5.1,0-9.3-4.1-9.3-9.3c0-5.1,4.1-9.3,9.3-9.3h92.7c5.1,0,9.3,4.1,9.3,9.3
	C157.5,385,153.4,389.2,148.3,389.2z"/>
<path class="st0" d="M101.9,361.4H9.3c-5.1,0-9.3-4.1-9.3-9.3c0-5.1,4.1-9.3,9.3-9.3h92.7c5.1,0,9.3,4.1,9.3,9.3
	C111.2,357.2,107,361.4,101.9,361.4z"/>
</svg>
