<?xml version="1.0" encoding="utf-8"?>
<!-- Generator: Adobe Illustrator 23.0.1, SVG Export Plug-In . SVG Version: 6.00 Build 0)  -->
<svg version="1.1" id="Layer_1" xmlns="http://www.w3.org/2000/svg" xmlns:xlink="http://www.w3.org/1999/xlink" x="0px" y="0px"
	 viewBox="0 0 380 390" style="enable-background:new 0 0 380 390;" xml:space="preserve">
<style type="text/css">
	.st0{fill:#006863;}
</style>
<path class="st0" d="M333.6,389.2h-83.4c-5.1,0-9.3-4.1-9.3-9.3V9.3c0-5.1,4.1-9.3,9.3-9.3h83.4c5.1,0,9.3,4.1,9.3,9.3v370.7
	C342.9,385,338.7,389.2,333.6,389.2z M259.5,370.7h64.9V18.5h-64.9V370.7z"/>
<path class="st0" d="M296.5,352.1h-46.3c-5.1,0-9.3-4.1-9.3-9.3s4.1-9.3,9.3-9.3h46.3c5.1,0,9.3,4.1,9.3,9.3
	S301.6,352.1,296.5,352.1z"/>
<path class="st0" d="M296.5,315.1h-46.3c-5.1,0-9.3-4.1-9.3-9.3s4.1-9.3,9.3-9.3h46.3c5.1,0,9.3,4.1,9.3,9.3
	S301.6,315.1,296.5,315.1z"/>
<path class="st0" d="M296.5,278h-46.3c-5.1,0-9.3-4.1-9.3-9.3c0-5.1,4.1-9.3,9.3-9.3h46.3c5.1,0,9.3,4.1,9.3,9.3
	C305.8,273.8,301.6,278,296.5,278z"/>
<path class="st0" d="M296.5,240.9h-46.3c-5.1,0-9.3-4.1-9.3-9.3c0-5.1,4.1-9.3,9.3-9.3h46.3c5.1,0,9.3,4.1,9.3,9.3
	C305.8,236.8,301.6,240.9,296.5,240.9z"/>
<path class="st0" d="M296.5,203.9h-46.3c-5.1,0-9.3-4.1-9.3-9.3c0-5.1,4.1-9.3,9.3-9.3h46.3c5.1,0,9.3,4.1,9.3,9.3
	C305.8,199.7,301.6,203.9,296.5,203.9z"/>
<path class="st0" d="M296.5,166.8h-46.3c-5.1,0-9.3-4.1-9.3-9.3c0-5.1,4.1-9.3,9.3-9.3h46.3c5.1,0,9.3,4.1,9.3,9.3
	C305.8,162.6,301.6,166.8,296.5,166.8z"/>
<path class="st0" d="M296.5,129.7h-46.3c-5.1,0-9.3-4.1-9.3-9.3c0-5.1,4.1-9.3,9.3-9.3h46.3c5.1,0,9.3,4.1,9.3,9.3
	C305.8,125.6,301.6,129.7,296.5,129.7z"/>
<path class="st0" d="M296.5,92.7h-46.3c-5.1,0-9.3-4.1-9.3-9.3c0-5.1,4.1-9.3,9.3-9.3h46.3c5.1,0,9.3,4.1,9.3,9.3
	C305.8,88.5,301.6,92.7,296.5,92.7z"/>
<path class="st0" d="M296.5,55.6h-46.3c-5.1,0-9.3-4.1-9.3-9.3c0-5.1,4.1-9.3,9.3-9.3h46.3c5.1,0,9.3,4.1,9.3,9.3
	S301.6,55.6,296.5,55.6z"/>
<path class="st0" d="M101.9,352.1H46.3c-5.1,0-9.3-4.1-9.3-9.3V74.1c0-5.1,4.1-9.3,9.3-9.3h55.6c5.1,0,9.3,4.1,9.3,9.3v268.7
	C111.2,348,107,352.1,101.9,352.1z M55.6,333.6h37.1V83.4H55.6V333.6z"/>
<path class="st0" d="M92.1,389.2H56.2c-10.7,0-19.1-9.8-19.1-22.4v-23.9c0-5.1,4.1-9.3,9.3-9.3h55.6c5.1,0,9.3,4.1,9.3,9.3v23.9
	C111.2,379.4,102.8,389.2,92.1,389.2z M56.7,370.7h34.8c0.4-0.5,1.1-1.8,1.1-3.9v-14.7H55.6v14.7C55.6,368.8,56.3,370.2,56.7,370.7z
	"/>
<path class="st0" d="M101.9,83.4H46.3c-3.1,0-6-1.6-7.7-4.2c-1.7-2.6-2-5.9-0.8-8.8L65.6,5.6C67.1,2.2,70.4,0,74.1,0
	c3.7,0,7.1,2.2,8.5,5.6l27.8,64.9c1.2,2.9,0.9,6.2-0.8,8.8C108,81.8,105,83.4,101.9,83.4z M60.4,64.9h27.5L74.1,32.8L60.4,64.9z"/>
<path class="st0" d="M186.9,157.5h-21.6c-19.6,0-35.5-15.9-35.5-35.5V35.5c0-19.6,15.9-35.5,35.5-35.5h21.6
	c19.6,0,35.5,15.9,35.5,35.5V122C222.4,141.6,206.5,157.5,186.9,157.5z M165.3,18.5c-9.4,0-17,7.6-17,17V122c0,9.4,7.6,17,17,17
	h21.6c9.4,0,17-7.6,17-17V35.5c0-9.4-7.6-17-17-17H165.3z"/>
<path class="st0" d="M213.1,88H139c-5.1,0-9.3-4.1-9.3-9.3c0-5.1,4.1-9.3,9.3-9.3h74.1c5.1,0,9.3,4.1,9.3,9.3
	C222.4,83.9,218.2,88,213.1,88z"/>
<path class="st0" d="M213.1,333.6h-18.5v18.5h18.5V333.6z"/>
<path class="st0" d="M213.1,305.8h-18.5v18.5h18.5V305.8z"/>
<path class="st0" d="M213.1,278h-18.5v18.5h18.5V278z"/>
<path class="st0" d="M185.3,278h-18.5v18.5h18.5V278z"/>
<path class="st0" d="M157.5,278H139v18.5h18.5V278z"/>
<path class="st0" d="M157.5,305.8H139v18.5h18.5V305.8z"/>
<path class="st0" d="M185.3,333.6h-18.5v18.5h18.5V333.6z"/>
<path class="st0" d="M157.5,333.6H139v18.5h18.5V333.6z"/>
<path class="st0" d="M176.1,259.5c-25.5,0-46.3-20.8-46.3-46.3s20.8-46.3,46.3-46.3s46.3,20.8,46.3,46.3
	C222.4,238.7,201.6,259.5,176.1,259.5z M176.1,185.3c-15.3,0-27.8,12.5-27.8,27.8c0,15.3,12.5,27.8,27.8,27.8s27.8-12.5,27.8-27.8
	C203.9,197.8,191.4,185.3,176.1,185.3z"/>
<path class="st0" d="M370.7,389.2H9.3c-5.1,0-9.3-4.1-9.3-9.3c0-5.1,4.1-9.3,9.3-9.3h361.4c5.1,0,9.3,4.1,9.3,9.3
	C379.9,385,375.8,389.2,370.7,389.2z"/>
</svg>
