<?xml version="1.0" encoding="utf-8"?>
<!-- Generator: Adobe Illustrator 23.0.1, SVG Export Plug-In . SVG Version: 6.00 Build 0)  -->
<svg version="1.1" id="Layer_1" xmlns="http://www.w3.org/2000/svg" xmlns:xlink="http://www.w3.org/1999/xlink" x="0px" y="0px"
	 viewBox="0 0 428 428" style="enable-background:new 0 0 428 428;" xml:space="preserve">
<style type="text/css">
	.st0{fill:#3E6396;}
</style>
<path class="st0" d="M139.9,427.1c-76.6,0-139-62.4-139-139c0-56.9,34.7-107.9,87.1-129V47.2c0-5.1,4.1-9.3,9.3-9.3h83.4
	c5.1,0,9.3,4.1,9.3,9.3v111.2c53.5,20.6,89,71.9,89,129.7C278.9,364.8,216.5,427.1,139.9,427.1z M106.5,56.5v109.1
	c0,3.9-2.5,7.5-6.2,8.8c-48.4,16.8-80.9,62.6-80.9,113.8c0,66.4,54,120.5,120.5,120.5c66.4,0,120.5-54,120.5-120.5
	c0-52.1-33.2-98-82.6-114.4c-3.8-1.3-6.4-4.8-6.4-8.8V56.5H106.5z"/>
<path class="st0" d="M199.2,56.5H78.7c-5.1,0-9.3-4.1-9.3-9.3V10.1c0-5.1,4.1-9.3,9.3-9.3h120.5c5.1,0,9.3,4.1,9.3,9.3v37.1
	C208.4,52.3,204.3,56.5,199.2,56.5z M88,37.9h101.9V19.4H88V37.9z"/>
<path class="st0" d="M138.9,399.3c-58.8,0-106.6-47.8-106.6-106.6c0-21.7,6.5-42.6,18.8-60.4c12-17.4,28.7-30.7,48.2-38.5
	c4.8-1.9,10.1,0.4,12,5.2c1.9,4.8-0.4,10.1-5.2,12c-33.6,13.5-55.3,45.5-55.3,81.8c0,48.5,39.5,88,88,88c45.3,0,82.7-34.4,87.5-78.4
	l-119.6,4.3c-5.1,0.2-9.4-3.8-9.6-8.9c-0.2-5.1,3.8-9.4,8.9-9.6l129.7-4.6c2.5-0.1,5,0.8,6.8,2.6c1.8,1.7,2.8,4.2,2.8,6.7
	C245.5,351.5,197.7,399.3,138.9,399.3z"/>
<path class="st0" d="M112.1,251.1H93.5v18.5h18.5V251.1z"/>
<path class="st0" d="M139.9,251.1h-18.5v18.5h18.5V251.1z"/>
<path class="st0" d="M167.7,251.1h-18.5v18.5h18.5V251.1z"/>
<path class="st0" d="M195.5,251.1h-18.5v18.5h18.5V251.1z"/>
<path class="st0" d="M390.1,427.1H10.1c-5.1,0-9.3-4.1-9.3-9.3c0-5.1,4.1-9.3,9.3-9.3h379.9c5.1,0,9.3,4.1,9.3,9.3
	C399.3,423,395.2,427.1,390.1,427.1z"/>
<path class="st0" d="M417.9,427.1c-2.4,0-4.8-1-6.6-2.7s-2.7-4.1-2.7-6.6c0-2.4,1-4.8,2.7-6.6s4.1-2.7,6.6-2.7c2.4,0,4.8,1,6.6,2.7
	s2.7,4.1,2.7,6.6c0,2.4-1,4.8-2.7,6.6S420.3,427.1,417.9,427.1z"/>
<path class="st0" d="M19.4,158.4c-2.4,0-4.8-1-6.6-2.7c-1.7-1.7-2.7-4.1-2.7-6.6c0-2.4,1-4.8,2.7-6.6c1.7-1.7,4.1-2.7,6.6-2.7
	s4.8,1,6.6,2.7c1.7,1.7,2.7,4.1,2.7,6.6c0,2.4-1,4.8-2.7,6.6C24.2,157.4,21.8,158.4,19.4,158.4z"/>
<path class="st0" d="M56.5,139.9c-2.4,0-4.8-1-6.6-2.7c-1.7-1.7-2.7-4.1-2.7-6.6c0-2.4,1-4.8,2.7-6.6c1.7-1.7,4.1-2.7,6.6-2.7
	c2.4,0,4.8,1,6.6,2.7c1.7,1.7,2.7,4.1,2.7,6.6c0,2.4-1,4.8-2.7,6.6C61.3,138.9,58.9,139.9,56.5,139.9z"/>
<path class="st0" d="M37.9,102.8c-2.4,0-4.8-1-6.6-2.7c-1.7-1.7-2.7-4.1-2.7-6.6c0-2.4,1-4.8,2.7-6.6c1.7-1.7,4.1-2.7,6.6-2.7
	s4.8,1,6.6,2.7c1.7,1.7,2.7,4.1,2.7,6.6c0,2.4-1,4.8-2.7,6.6C42.8,101.8,40.4,102.8,37.9,102.8z"/>
<path class="st0" d="M19.4,56.5c-2.4,0-4.8-1-6.6-2.7s-2.7-4.1-2.7-6.6c0-2.4,1-4.8,2.7-6.6c1.7-1.7,4.1-2.7,6.6-2.7s4.8,1,6.6,2.7
	c1.7,1.7,2.7,4.1,2.7,6.6c0,2.4-1,4.8-2.7,6.6C24.2,55.5,21.8,56.5,19.4,56.5z"/>
<path class="st0" d="M270.1,149.1c-1.6,0-3.2-0.4-4.6-1.2l-46.8-27c-2.9-1.7-4.6-4.7-4.6-8v-54c0-3.3,1.8-6.4,4.6-8l46.8-27
	c2.9-1.7,6.4-1.7,9.3,0l46.8,27c2.9,1.7,4.6,4.7,4.6,8v54c0,3.3-1.8,6.4-4.6,8l-46.8,27C273.3,148.7,271.7,149.1,270.1,149.1z
	 M232.5,107.5l37.5,21.7l37.5-21.7V64.2l-37.5-21.7l-37.5,21.7V107.5z"/>
<path class="st0" d="M316.4,229.4c-1.6,0-3.2-0.4-4.6-1.2l-46.8-27c-2.9-1.7-4.6-4.7-4.6-8v-54c0-3.3,1.8-6.4,4.6-8l46.8-27
	c2.9-1.7,6.4-1.7,9.3,0l46.8,27c2.9,1.7,4.6,4.7,4.6,8v54c0,3.3-1.8,6.4-4.6,8l-46.8,27C319.6,229,318,229.4,316.4,229.4z
	 M278.9,187.8l37.5,21.7l37.5-21.7v-43.3l-37.5-21.7l-37.5,21.7V187.8z"/>
<path class="st0" d="M363.2,146c-1.6,0-3.2-0.4-4.6-1.2l-46.8-27c-2.9-1.7-4.6-4.7-4.6-8v-54c0-3.3,1.8-6.4,4.6-8l46.8-27
	c2.9-1.7,6.4-1.7,9.3,0l46.8,27c2.9,1.7,4.6,4.7,4.6,8v54c0,3.3-1.8,6.4-4.6,8l-46.8,27C366.4,145.6,364.8,146,363.2,146z
	 M325.7,104.4l37.5,21.7l37.5-21.7V61l-37.5-21.7L325.7,61V104.4z"/>
<path class="st0" d="M417.9,288.1H306.7c-5.1,0-9.3-4.1-9.3-9.3c0-5.1,4.1-9.3,9.3-9.3h111.2c5.1,0,9.3,4.1,9.3,9.3
	C427.1,284,423,288.1,417.9,288.1z"/>
<path class="st0" d="M417.9,315.9H306.7c-5.1,0-9.3-4.1-9.3-9.3s4.1-9.3,9.3-9.3h111.2c5.1,0,9.3,4.1,9.3,9.3S423,315.9,417.9,315.9
	z"/>
<path class="st0" d="M417.9,343.7H306.7c-5.1,0-9.3-4.1-9.3-9.3c0-5.1,4.1-9.3,9.3-9.3h111.2c5.1,0,9.3,4.1,9.3,9.3
	C427.1,339.6,423,343.7,417.9,343.7z"/>
<path class="st0" d="M417.9,371.5h-37.1c-5.1,0-9.3-4.1-9.3-9.3c0-5.1,4.1-9.3,9.3-9.3h37.1c5.1,0,9.3,4.1,9.3,9.3
	C427.1,367.4,423,371.5,417.9,371.5z"/>
</svg>
