<svg width="871" height="235" viewBox="0 0 871 235" fill="none" xmlns="http://www.w3.org/2000/svg">
<path d="M54.8223 101.058L34.5589 48.2221L32.9305 52.5647L47.6356 94.1968C47.9988 95.2208 48.3031 96.3352 48.5458 97.5388C48.6047 97.9582 48.7568 99.133 48.9995 101.058H54.8223ZM39.928 80.1586L31.5734 56.1109L21.0449 80.1586H39.928ZM41.163 83.4156H19.8126C17.8813 87.6801 16.8272 90.0227 16.6462 90.4436C15.4386 93.5059 14.8369 95.9692 14.8369 97.8294C14.8369 99.8115 16.2981 100.953 19.2246 101.254C22.1497 101.552 23.6123 102.094 23.6123 102.874C23.6123 103.954 22.979 104.495 21.7124 104.495C20.8667 104.495 19.5714 104.36 17.8223 104.088C16.0719 103.818 14.7149 103.681 13.7513 103.681C12.6053 103.681 11.2771 103.762 9.77068 103.927C6.2109 104.305 3.98073 104.495 3.07606 104.495C2.10969 104.495 1.62857 104.047 1.62857 103.147C1.62857 102.729 3.07606 101.829 5.97103 100.45C7.65839 99.61 8.92494 98.5614 9.77068 97.303C10.3724 96.2255 10.9769 95.0261 11.58 93.7074C11.8199 93.1673 12.3326 91.9391 13.118 90.02L34.7398 40.1468C34.9797 39.6053 35.31 39.3339 35.7308 39.3339C36.1503 39.3339 36.4806 39.5752 36.7219 40.0591C36.9618 40.5429 37.1564 41.2832 37.3072 42.2811C37.4566 43.279 37.6526 44.2002 37.8925 45.046C38.1337 45.8931 38.5833 47.2241 39.244 49.0363C39.4853 49.6408 40.0253 51.0623 40.8656 53.2981L55.9628 92.2366C57.1841 95.34 58.2985 97.4277 59.3059 98.501C60.3134 99.5744 62.2845 100.619 65.2165 101.632C65.8265 101.811 66.1322 102.198 66.1322 102.796C66.1322 103.929 65.4989 104.495 64.2323 104.495C63.1467 104.495 61.4868 104.36 59.2566 104.088C57.0237 103.818 55.3062 103.681 54.0999 103.681C52.4715 103.681 50.5717 103.762 48.4005 103.927C43.3343 104.305 40.198 104.495 38.9918 104.495C37.9062 104.495 37.3634 104.046 37.3634 103.144C37.3634 102.064 38.7053 101.373 41.3892 101.074C44.0717 100.774 45.415 99.8417 45.415 98.2804C45.415 96.719 44.6296 93.5649 43.0629 88.8206C42.0362 85.9995 41.4029 84.1955 41.163 83.4156Z" fill="#1C3C6E"/>
<path d="M94.1765 102.776C88.1453 98.7971 83.7425 94.4229 80.9682 89.6594C78.0129 84.5916 76.5352 78.5616 76.5352 71.5637C76.5352 63.9051 78.5845 57.5406 82.6871 52.4755C86.4867 47.7696 92.1547 44.1508 99.695 41.6189C91.7942 41.6189 85.1599 44.965 79.7921 51.6599C74.7862 57.934 72.2833 65.1402 72.2833 73.2827C72.2833 80.1585 74.2736 86.2818 78.2541 91.6484C82.2347 97.0178 87.5422 100.727 94.1765 102.776ZM128.283 58.9826C128.283 59.8312 127.861 60.2547 127.016 60.2547C126.413 60.2547 125.961 59.9244 125.659 59.2595C125.358 58.3562 125.177 57.7531 125.116 57.4515C123.307 52.2631 121.106 48.5852 118.512 46.4126C115.617 44.0013 111.515 42.7937 106.209 42.7937C98.6684 42.7937 92.5481 45.9013 87.8437 52.1123C83.5602 57.7832 81.4205 64.5069 81.4205 72.2888C81.4205 80.19 83.4108 86.9754 87.3914 92.6436C91.9148 99.037 97.9761 102.234 105.575 102.234C109.375 102.234 112.572 101.662 115.165 100.516C118.119 99.1891 120.533 97.0466 122.402 94.0912C123.669 91.0768 124.768 88.7547 125.705 87.1248C126.639 85.4977 127.438 84.6835 128.102 84.6835C128.826 84.6835 129.188 85.1345 129.188 86.0392C129.188 87.1248 128.916 88.5422 128.373 90.2927C127.589 92.8246 127.166 94.2721 127.107 94.6354C126.745 97.6511 126.413 100.637 126.112 103.592C125.87 104.314 124.994 104.678 123.488 104.678C122.823 104.678 122.19 104.645 121.588 104.586C120.985 104.526 120.412 104.464 119.869 104.405C118.119 104.405 116.009 104.516 113.537 104.739C107.928 105.24 104.399 105.491 102.952 105.491C93.9051 105.491 86.1838 102.419 79.7921 96.2762C73.399 90.131 70.2025 82.5738 70.2025 73.5979C70.2025 64.0806 73.0975 56.0409 78.8874 49.4749C84.9186 42.6086 92.6687 39.1762 102.138 39.1762C104.369 39.1762 107.596 39.6889 111.818 40.7142C116.04 41.7396 119.205 42.2522 121.317 42.2522C122.885 42.2522 124.076 41.7396 124.89 40.7142C125.705 39.6889 126.383 39.1762 126.926 39.1762C127.589 39.1762 127.921 39.9041 127.921 41.3557C127.921 42.3263 127.831 43.7793 127.65 45.7176C127.469 47.6572 127.378 49.1404 127.378 50.1685C127.378 51.0787 127.469 52.1698 127.65 53.4406C128.072 56.3494 128.283 58.1972 128.283 58.9826Z" fill="#1C3C6E"/>
<path d="M159.041 100.243H165.012C164.621 98.5555 164.343 95.6289 164.177 91.4672C164.01 87.3055 163.926 82.601 163.926 77.3536C163.926 71.5031 163.962 65.7431 164.036 60.0735C164.107 54.4053 164.192 49.2485 164.288 44.6029H159.946V90.3815C159.946 92.7941 159.9 94.6186 159.81 95.8551C159.72 97.0915 159.463 98.5555 159.041 100.243ZM133.258 54.8262C132.534 54.8262 132.172 54.4931 132.172 53.8255C132.172 53.2196 132.443 52.2505 132.986 50.9167C133.529 49.5816 134.253 47.0648 135.157 43.3664C135.519 41.8503 135.972 40.2726 136.514 38.6359C136.695 38.1506 137.026 37.908 137.51 37.908L138.233 38.3727C138.654 39.7352 139.319 40.5728 140.224 40.8812C141.128 41.1924 142.425 41.3459 144.114 41.3459H184.734H186.272C188.021 41.3459 189.378 41.165 190.343 40.8031C191.308 40.4412 192.454 39.5981 193.781 38.2699L194.685 37.908C195.53 37.908 195.952 38.2699 195.952 38.9936L195.861 39.3555C195.62 40.3822 195.138 41.5872 194.414 42.9744C193.268 45.2074 192.664 46.4109 192.605 46.5932C191.519 49.609 190.464 52.6261 189.438 55.6404C189.197 56.1833 188.714 56.4547 187.991 56.4547C187.688 56.3957 187.403 56.3025 187.131 56.1819C186.86 56.0612 186.724 55.9091 186.724 55.724C186.724 54.8138 186.875 53.8721 187.177 52.8989C187.961 50.2875 188.353 48.7056 188.353 48.1587C188.353 46.3972 186.392 45.3033 182.472 44.8757C180.844 44.6947 179.093 44.6029 177.225 44.6029H175.506H168.721L168.45 75.5003V79.2604V82.6585C168.45 88.579 168.703 92.7914 169.212 95.2985C169.72 97.8057 170.452 99.3314 171.41 99.8728C173.922 100.479 175.865 100.976 177.241 101.37C178.618 101.762 179.306 102.29 179.306 102.956C179.306 103.981 178.853 104.495 177.949 104.495C176.501 104.495 174.27 104.328 171.254 103.998C168.237 103.666 165.977 103.5 164.469 103.5C162.599 103.5 160.728 103.582 158.86 103.749C153.251 104.247 150.115 104.495 149.451 104.495C148.486 104.495 148.004 104.073 148.004 103.23C148.004 102.447 149.058 101.726 151.17 101.063C153.824 100.22 155.3 99.6782 155.603 99.4356C156.386 98.7748 156.929 97.5247 157.232 95.6865C157.533 93.851 157.684 92.0895 157.684 90.4021V44.6933L149.994 44.4219C146.434 44.4219 143.737 44.814 141.897 45.5981C140.056 46.3822 138.625 47.4678 137.6 48.855C136.816 50.182 136.153 51.2978 135.61 52.2025C134.524 53.9516 133.74 54.8262 133.258 54.8262Z" fill="#1C3C6E"/>
<path d="M242.361 42.4325C248.091 45.503 252.629 50.0197 255.977 55.9826C259.324 61.9428 260.998 68.2347 260.998 74.8583C260.998 79.2558 260.229 83.364 258.691 87.1885C257.153 91.0116 254.846 94.6702 251.77 98.163C255.99 95.394 259.264 91.7203 261.586 87.1433C263.906 82.5676 265.069 77.689 265.069 72.5088C265.069 66.428 262.807 60.047 258.284 53.3617C253.338 46.0746 248.029 42.4325 242.361 42.4325ZM236.843 102.234C243.296 102.234 248.663 99.2185 252.946 93.1857C256.805 87.7574 258.736 81.667 258.736 74.9104C258.736 66.8913 256.413 59.6536 251.77 53.1986C246.582 46.0212 240.13 42.4325 232.41 42.4325C226.136 42.4325 221.07 45.2069 217.211 50.7558C213.774 55.7016 212.055 61.463 212.055 68.0359C212.055 75.8768 214.166 83.2653 218.387 90.2015C223.273 98.2233 229.424 102.234 236.843 102.234ZM226.62 102.687C220.287 99.3693 215.521 95.2981 212.326 90.4729C208.949 85.4065 207.26 79.4052 207.26 72.4691C207.26 67.3437 208.33 62.3965 210.471 57.6317C212.611 52.8669 215.613 48.7367 219.473 45.2371C214.588 47.5893 210.666 51.3138 207.712 56.4103C204.756 61.5069 203.279 66.8584 203.279 72.4691C203.279 79.6465 205.419 86.1152 209.702 91.8739C213.985 97.6353 219.622 101.238 226.62 102.687ZM270.045 72.7857C270.045 82.4826 266.456 90.4345 259.279 96.6373C252.462 102.541 244.11 105.491 234.219 105.491C224.388 105.491 216.382 102.344 210.2 96.0493C204.017 89.756 200.927 81.6697 200.927 71.7919C200.927 62.5144 204.274 54.7599 210.969 48.5256C217.664 42.2913 225.684 39.1755 235.033 39.1755C244.863 39.1755 253.156 42.3379 259.912 48.6627C266.666 54.9861 270.045 63.0285 270.045 72.7857Z" fill="#1C3C6E"/>
<path d="M339.16 90.9252C334.938 86.462 329.993 81.3051 324.323 75.4546C317.026 67.9769 312.05 62.8187 309.396 59.9839C303.787 53.9524 299.051 48.5845 295.193 43.8799H289.674C293.896 49.0067 299.294 55.0381 305.868 61.9743C311.477 67.8248 317.116 73.6451 322.786 79.4353C329.118 86.0713 334.577 92.0712 339.16 97.4392V90.9252ZM341.331 105.672C340.728 105.672 340.155 105.31 339.613 104.586C338.286 102.475 336.989 100.334 335.722 98.163C334.215 95.7518 332.707 93.76 331.199 92.1918C328.847 89.7189 324.201 84.8951 317.267 77.7164C311.174 71.4436 306.531 66.5883 303.335 63.1504C298.269 57.7207 293.806 52.716 289.946 48.1321L289.765 76.5402V80.6114V84.2303C289.765 89.6586 290.064 93.5338 290.663 95.8559C291.26 98.178 292.128 99.6407 293.267 100.244C293.326 100.304 294.717 100.576 297.441 101.058C300.163 101.541 301.526 102.205 301.526 103.048C301.526 104.074 301.073 104.586 300.169 104.586C298.902 104.586 297.726 104.526 296.64 104.406C292.961 103.982 290.971 103.772 290.669 103.772C288.92 103.772 287.352 103.831 285.965 103.953C281.08 104.375 278.456 104.586 278.094 104.586C276.768 104.586 276.104 104.163 276.104 103.32C276.104 102.537 277.386 101.782 279.949 101.058C282.512 100.334 284.005 99.8216 284.427 99.52C285.332 98.7963 285.905 97.6051 286.146 95.9464C286.387 94.2878 286.508 92.4632 286.508 90.4729V64.2361V61.0243C286.508 59.8482 286.598 58.5679 286.779 57.1793C286.779 53.8634 286.567 51.0587 286.146 48.7654C285.724 46.4735 284.91 45.0273 283.703 44.4228C282.256 44.0609 281.139 43.7895 280.356 43.6071C278.788 43.1877 278.004 42.5832 278.004 41.7991C278.004 41.1356 278.321 40.6983 278.954 40.4872C279.587 40.2761 280.266 40.1706 280.989 40.1706C281.772 40.1706 282.844 40.246 284.201 40.3968C285.558 40.5476 286.387 40.6229 286.689 40.6229C287.891 40.6229 288.853 40.5928 289.574 40.5325C292.58 40.2912 294.232 40.1706 294.532 40.1706H295.614C296.997 40.1706 298.348 41.0164 299.671 42.7038C300.694 44.1513 301.715 45.5989 302.737 47.0464C305.983 50.8463 309.919 55.13 314.547 59.8934C316.95 62.4266 321.038 66.5883 326.809 72.3785C332.278 77.9288 336.334 82.1193 338.979 84.9541L339.16 64.2827V61.5205C339.16 60.5212 339.251 59.4493 339.432 58.3006C339.432 53.6481 339.13 50.2938 338.527 48.239C337.924 46.1828 337.048 44.8847 335.903 44.3405C335.843 44.2816 334.441 44.0074 331.697 43.5249C328.951 43.041 327.58 42.3776 327.58 41.5304C327.58 40.9259 327.852 40.5489 328.395 40.3981C328.937 40.246 329.601 40.1706 330.385 40.1706C331.41 40.1706 332.767 40.2912 334.456 40.5325C336.143 40.7737 337.229 40.8944 337.713 40.8944C339.1 40.8944 341.211 40.7737 344.046 40.5325C346.88 40.2912 349.021 40.1706 350.469 40.1706H352.097C352.699 40.2912 353.002 40.6846 353.002 41.3467C353.002 42.1308 351.69 42.9163 349.066 43.699C346.443 44.4831 344.98 44.9957 344.679 45.237C343.774 45.9608 343.2 47.1232 342.96 48.7202C342.719 50.3185 342.598 52.1444 342.598 54.1937V104.134C342.598 105.159 342.176 105.672 341.331 105.672Z" fill="#1C3C6E"/>
<path d="M427.004 101.058L406.739 48.2221L405.11 52.5647L419.816 94.1968C420.179 95.2208 420.483 96.3352 420.726 97.5388C420.786 97.9582 420.937 99.133 421.18 101.058H427.004ZM412.108 80.1586L403.755 56.1109L393.225 80.1586H412.108ZM413.343 83.4156H391.993C390.063 87.6801 389.007 90.0227 388.826 90.4436C387.62 93.5059 387.018 95.9692 387.018 97.8294C387.018 99.8115 388.479 100.953 391.405 101.254C394.33 101.552 395.792 102.094 395.792 102.874C395.792 103.954 395.16 104.495 393.892 104.495C393.048 104.495 391.751 104.36 390.002 104.088C388.252 103.818 386.896 103.681 385.933 103.681C384.785 103.681 383.459 103.762 381.951 103.927C378.392 104.305 376.161 104.495 375.257 104.495C374.291 104.495 373.809 104.047 373.809 103.147C373.809 102.729 375.257 101.829 378.151 100.45C379.84 99.61 381.106 98.5614 381.951 97.303C382.554 96.2255 383.157 95.0261 383.761 93.7074C384.001 93.1673 384.514 91.9391 385.298 90.02L406.921 40.1468C407.161 39.6053 407.49 39.3339 407.911 39.3339C408.33 39.3339 408.662 39.5752 408.902 40.0591C409.143 40.5429 409.338 41.2832 409.487 42.2811C409.638 43.279 409.834 44.2002 410.074 45.046C410.314 45.8931 410.763 47.2241 411.425 49.0363C411.665 49.6408 412.205 51.0623 413.047 53.2981L428.144 92.2366C429.365 95.34 430.479 97.4277 431.486 98.501C432.495 99.5744 434.465 100.619 437.397 101.632C438.007 101.811 438.312 102.198 438.312 102.796C438.312 103.929 437.68 104.495 436.414 104.495C435.327 104.495 433.667 104.36 431.437 104.088C429.204 103.818 427.486 103.681 426.281 103.681C424.653 103.681 422.752 103.762 420.581 103.927C415.514 104.305 412.378 104.495 411.172 104.495C410.086 104.495 409.543 104.046 409.543 103.144C409.543 102.064 410.885 101.373 413.569 101.074C416.253 100.774 417.595 99.8417 417.595 98.2804C417.595 96.719 416.811 93.5649 415.243 88.8206C414.218 85.9995 413.583 84.1955 413.343 83.4156Z" fill="#1C3C6E"/>
<path d="M466.357 102.776C460.326 98.7971 455.922 94.4229 453.148 89.6594C450.192 84.5916 448.716 78.5616 448.716 71.5637C448.716 63.9051 450.765 57.5406 454.868 52.4755C458.667 47.7696 464.335 44.1508 471.874 41.6189C463.974 41.6189 457.339 44.965 451.973 51.6599C446.967 57.934 444.463 65.1402 444.463 73.2827C444.463 80.1585 446.453 86.2818 450.435 91.6484C454.415 97.0178 459.722 100.727 466.357 102.776ZM500.464 58.9826C500.464 59.8312 500.04 60.2547 499.197 60.2547C498.594 60.2547 498.14 59.9244 497.84 59.2595C497.537 58.3562 497.356 57.7531 497.296 57.4515C495.488 52.2631 493.285 48.5852 490.693 46.4126C487.798 44.0013 483.696 42.7937 478.388 42.7937C470.849 42.7937 464.73 45.9013 460.024 52.1123C455.741 57.7832 453.6 64.5069 453.6 72.2888C453.6 80.19 455.592 86.9754 459.572 92.6436C464.096 99.037 470.155 102.234 477.755 102.234C481.556 102.234 484.751 101.662 487.347 100.516C490.3 99.1891 492.715 97.0466 494.583 94.0912C495.85 91.0768 496.949 88.7547 497.885 87.1248C498.82 85.4977 499.618 84.6835 500.283 84.6835C501.005 84.6835 501.368 85.1345 501.368 86.0392C501.368 87.1248 501.097 88.5422 500.553 90.2927C499.769 92.8246 499.346 94.2721 499.286 94.6354C498.926 97.6511 498.594 100.637 498.292 103.592C498.05 104.314 497.175 104.678 495.669 104.678C495.004 104.678 494.371 104.645 493.769 104.586C493.166 104.526 492.593 104.464 492.05 104.405C490.3 104.405 488.19 104.516 485.717 104.739C480.107 105.24 476.58 105.491 475.131 105.491C466.086 105.491 458.364 102.419 451.973 96.2762C445.58 90.131 442.383 82.5738 442.383 73.5979C442.383 64.0806 445.278 56.0409 451.068 49.4749C457.098 42.6086 464.848 39.1762 474.318 39.1762C476.549 39.1762 479.775 39.6889 483.998 40.7142C488.219 41.7396 491.385 42.2522 493.498 42.2522C495.064 42.2522 496.255 41.7396 497.07 40.7142C497.885 39.6889 498.564 39.1762 499.107 39.1762C499.769 39.1762 500.102 39.9041 500.102 41.3557C500.102 42.3263 500.011 43.7793 499.83 45.7176C499.649 47.6572 499.559 49.1404 499.559 50.1685C499.559 51.0787 499.649 52.1698 499.83 53.4406C500.251 56.3494 500.464 58.1972 500.464 58.9826Z" fill="#1C3C6E"/>
<path d="M559.537 101.058L539.274 48.2221L537.645 52.5647L552.35 94.1968C552.712 95.2208 553.018 96.3352 553.261 97.5388C553.321 97.9582 553.472 99.133 553.714 101.058H559.537ZM544.643 80.1586L536.288 56.1109L525.76 80.1586H544.643ZM545.878 83.4156H524.527C522.596 87.6801 521.542 90.0227 521.36 90.4436C520.155 93.5059 519.552 95.9692 519.552 97.8294C519.552 99.8115 521.014 100.953 523.939 101.254C526.863 101.552 528.326 102.094 528.326 102.874C528.326 103.954 527.694 104.495 526.427 104.495C525.583 104.495 524.285 104.36 522.537 104.088C520.787 103.818 519.43 103.681 518.466 103.681C517.319 103.681 515.992 103.762 514.485 103.927C510.926 104.305 508.696 104.495 507.791 104.495C506.826 104.495 506.343 104.047 506.343 103.147C506.343 102.729 507.791 101.829 510.686 100.45C512.373 99.61 513.641 98.5614 514.485 97.303C515.087 96.2255 515.692 95.0261 516.295 93.7074C516.535 93.1673 517.049 91.9391 517.833 90.02L539.455 40.1468C539.694 39.6053 540.025 39.3339 540.446 39.3339C540.865 39.3339 541.195 39.5752 541.437 40.0591C541.677 40.5429 541.871 41.2832 542.022 42.2811C542.171 43.279 542.369 44.2002 542.607 45.046C542.848 45.8931 543.298 47.2241 543.96 49.0363C544.2 49.6408 544.74 51.0623 545.58 53.2981L560.677 92.2366C561.899 95.34 563.013 97.4277 564.021 98.501C565.028 99.5744 566.998 100.619 569.931 101.632C570.541 101.811 570.847 102.198 570.847 102.796C570.847 103.929 570.214 104.495 568.947 104.495C567.861 104.495 566.202 104.36 563.971 104.088C561.737 103.818 560.021 103.681 558.815 103.681C557.186 103.681 555.285 103.762 553.114 103.927C548.049 104.305 544.911 104.495 543.707 104.495C542.621 104.495 542.078 104.046 542.078 103.144C542.078 102.064 543.419 101.373 546.104 101.074C548.786 100.774 550.13 99.8417 550.13 98.2804C550.13 96.719 549.344 93.5649 547.778 88.8206C546.751 85.9995 546.118 84.1955 545.878 83.4156Z" fill="#1C3C6E"/>
<path d="M622.412 100.152C628.38 99.4898 633.026 96.1423 636.343 90.1109C639.117 85.0444 640.505 79.2227 640.505 72.6512C640.505 65.5327 639.058 59.6521 636.162 55.0065C632.905 49.8208 628.021 46.3212 621.508 44.5118C626.512 47.7687 630.265 51.8715 632.771 56.8173C635.273 61.7631 636.525 67.2818 636.525 73.3736C636.525 78.8622 635.349 83.9588 632.997 88.6619C630.464 93.6694 626.936 97.498 622.412 100.152ZM604.751 43.337C601.08 43.337 598.673 44.2403 597.531 46.0498C596.687 47.4384 596.267 50.1525 596.267 54.1936L595.996 80.61C595.996 82.7813 596.024 84.9855 596.086 87.2144C596.145 89.446 596.205 91.6475 596.267 93.8202C596.267 96.9566 597.258 99.0388 599.246 100.063C600.629 100.785 603.125 101.148 606.734 101.148C614.979 101.148 621.658 98.7043 626.773 93.8202C631.887 88.9334 634.443 82.3906 634.443 74.1878C634.443 64.5978 631.887 57.0585 626.773 51.5699C621.658 46.0813 614.318 43.337 604.751 43.337ZM586.586 100.242H592.647C592.26 98.4973 591.999 96.7646 591.859 95.0484C591.72 93.3322 591.653 91.1801 591.653 88.5893V84.3015V80.0096V69.8493V61.7644C591.653 57.5493 591.701 54.1018 591.8 51.4219C591.899 48.7434 592.121 46.4404 592.466 44.5118H586.586C587.008 47.2232 587.279 50.4294 587.401 54.1319C587.521 57.8358 587.582 61.4025 587.582 64.835V74.5456V81.9972C587.582 86.5756 587.516 90.2767 587.389 93.106C587.261 95.9367 586.993 98.3164 586.586 100.242ZM574.555 41.7071C574.555 41.226 574.674 40.8641 574.917 40.6215C575.155 40.3816 575.76 40.261 576.726 40.261C577.871 40.261 580.313 40.4721 584.054 40.8943C586.165 41.1341 587.671 41.2548 588.576 41.2548C590.686 41.2548 594.096 41.0903 598.797 40.7572C603.503 40.4268 606.549 40.261 607.935 40.261C619.395 40.261 628.412 42.8846 634.987 48.132C642.163 53.8619 645.752 62.3347 645.752 73.5545C645.752 83.2652 642.842 90.9703 637.022 96.6687C631.201 102.368 623.436 105.218 613.726 105.218C611.193 105.218 607.484 104.932 602.6 104.359C597.713 103.784 594.185 103.499 592.014 103.499C590.387 103.499 587.944 103.68 584.687 104.044C581.43 104.407 579.017 104.585 577.448 104.585C576.241 104.585 575.64 104.163 575.64 103.32C575.64 102.355 577.088 101.48 579.983 100.695C581.61 100.214 582.635 99.8215 583.057 99.5185C583.962 98.7961 584.595 96.2026 584.959 91.738C585.318 87.2747 585.5 82.1192 585.5 76.2673V74.5484V73.1022V71.9247V70.9309V68.081V65.6821V62.5156V58.8077C585.5 53.9208 585.244 50.4692 584.732 48.4473C584.218 46.4281 583.48 45.178 582.516 44.6927C582.394 44.6338 581.034 44.302 578.445 43.6975C575.85 43.0957 574.555 42.4323 574.555 41.7071Z" fill="#1C3C6E"/>
<path d="M702.024 101.058C702.507 99.2495 702.778 98.2241 702.838 97.9815C703.139 97.0179 703.5 95.9925 703.924 94.9069C701.51 97.499 698.617 99.5511 695.239 101.058H698.586H702.024ZM700.124 49.3077L700.848 43.1557H693.428C696.445 44.303 698.677 46.3537 700.124 49.3077ZM664.299 100.424H670.359C669.972 98.6738 669.711 96.9356 669.571 95.2139C669.434 93.4922 669.365 91.3332 669.365 88.7356V84.4313V80.1257V69.9325V61.8216C669.365 57.5928 669.413 54.1343 669.512 51.4461C669.612 48.7567 669.834 46.4469 670.179 44.5127H664.299C664.72 47.2324 664.991 50.4482 665.113 54.1644C665.233 57.8792 665.294 61.4584 665.294 64.9018V74.6439V82.1202C665.294 86.7109 665.228 90.4271 665.101 93.266C664.975 96.1063 664.705 98.4928 664.299 100.424ZM700.034 63.8737C700.758 63.8737 701.119 64.3247 701.119 65.2253C701.119 66.1876 700.997 67.6858 700.758 69.7283C700.515 71.7694 700.396 73.3006 700.396 74.3204C700.396 75.3403 700.47 76.7083 700.622 78.4177C700.771 80.1284 700.848 81.1647 700.848 81.5239C700.848 82.785 700.305 83.4156 699.22 83.4156C698.436 83.4156 697.876 82.2504 697.545 79.9201C697.213 77.5897 696.746 76.1257 696.144 75.5253C695.36 74.6892 694.108 74.1217 692.389 73.8215C690.67 73.5226 688.816 73.3746 686.826 73.3746H684.745H673.979V85.6184C673.979 86.5327 673.934 87.7514 673.842 89.2729C673.753 90.7986 673.708 91.8637 673.708 92.471C673.708 95.3359 674.189 97.3455 675.154 98.5038C676.422 99.965 678.864 100.696 682.483 100.696C685.559 100.696 688.544 100.334 691.438 99.6045C694.334 98.878 696.836 97.6649 698.948 95.9665C699.369 95.6032 701.421 92.7821 705.1 87.5046C706.729 85.2017 707.692 84.0489 707.992 84.0489C708.357 84.0489 708.719 84.1846 709.079 84.456C709.443 84.7247 709.592 85.0399 709.533 85.4005L705.643 102.335C705.219 103.774 704.165 104.495 702.477 104.495C701.934 104.495 701.178 104.435 700.215 104.315C699.25 104.193 698.645 104.134 698.404 104.134C695.631 104.134 691.498 104.057 686.01 103.907C680.522 103.757 676.39 103.681 673.616 103.681C672.229 103.681 670.148 103.726 667.375 103.818C664.599 103.907 662.49 103.953 661.042 103.953C658.931 104.109 656.849 104.288 654.8 104.495C653.773 104.495 653.262 104.073 653.262 103.23C653.262 102.57 653.89 101.997 655.145 101.514C656.996 100.853 658.849 100.161 660.702 99.4359C661.599 98.7135 662.242 96.2447 662.63 92.0296C663.019 87.8144 663.213 83.1455 663.213 78.0243V72.1518V65.8284V62.396V58.3302C663.213 54.8361 663.001 51.8546 662.58 49.3859C662.157 46.9171 661.342 45.3503 660.136 44.6882C657.604 44.085 655.643 43.5888 654.256 43.1968C652.869 42.8075 652.176 42.3099 652.176 41.7054C652.176 40.6814 653.081 40.1701 654.89 40.1701C657.423 40.1701 661.253 40.2921 666.38 40.5333C671.505 40.7732 675.366 40.8939 677.958 40.8939C680.733 40.8939 685.318 40.8349 691.711 40.7143C698.103 40.5937 701.51 40.5333 701.934 40.5333C703.199 40.5333 703.832 41.1063 703.832 42.2523C703.832 43.2777 703.607 44.7841 703.155 46.7745C702.703 48.7663 702.477 50.1837 702.477 51.0267C702.415 51.5695 702.386 51.9931 702.386 52.2933C702.386 53.0171 702.415 53.7724 702.477 54.5551C702.535 55.3392 702.596 56.1246 702.657 56.9074C702.657 58.174 702.264 58.8086 701.481 58.8086L700.848 58.6249C700.425 58.5029 699.716 56.7141 698.722 53.2556C697.727 49.7957 695.388 47.2474 691.711 45.608C690.263 45.0007 688.332 44.6059 685.921 44.425C683.507 44.2441 681.728 44.1508 680.582 44.1508C677.385 44.1508 675.395 45.0597 674.612 46.876C674.189 47.8437 673.979 50.2645 673.979 54.1384V69.8448H689.63C691.559 69.8448 692.976 69.7543 693.882 69.5734C695.569 69.2129 696.746 68.5193 697.41 67.4939C697.831 66.5289 698.134 65.8051 698.315 65.3226C698.737 64.3576 699.31 63.8737 700.034 63.8737Z" fill="#1C3C6E"/>
<path d="M782.539 100.243H788.601C788.21 98.6748 787.932 96.7297 787.766 94.4076C787.596 92.0868 787.515 89.9292 787.515 87.9388V83.9128V79.8868V73.3276V65.5923C787.515 60.286 787.584 55.8214 787.721 52.2025C787.859 48.5836 788.122 45.9915 788.508 44.4219H782.539C783.077 47.1361 783.422 50.3341 783.576 54.0119C783.728 57.6911 783.806 61.2497 783.806 64.689V71.9253V80.7916C783.806 85.7373 783.724 89.6126 783.561 92.4172C783.399 95.2218 783.058 97.8304 782.539 100.243ZM755.877 94.62L734.874 52.378C734.384 51.232 734.003 50.1326 733.732 49.0785C733.459 48.023 733.325 46.8935 733.325 45.6872V43.7886H724.821C725.423 44.5124 726.056 45.2526 726.719 46.0052C727.384 46.7591 727.926 47.5884 728.349 48.4932L753.498 100.063L755.877 94.62ZM802.714 103.045C802.714 104.072 802.261 104.586 801.357 104.586C799.728 104.586 798.068 104.495 796.381 104.314C791.374 103.771 788.601 103.5 788.057 103.5C786.368 103.5 783.865 103.681 780.549 104.043C777.231 104.405 774.758 104.586 773.131 104.586C772.045 104.586 771.501 104.162 771.501 103.318C771.501 102.593 772.662 101.867 774.984 101.142C777.306 100.418 778.649 99.8729 779.011 99.511C779.854 98.7872 780.427 97.548 780.73 95.7962C781.029 94.0457 781.182 92.2623 781.182 90.4487V46.9551L764.275 84.1966C761.378 90.6612 758.487 97.0943 755.595 103.497C755.173 104.464 754.478 104.948 753.514 104.948H752.07C751.646 103.318 751.283 102.02 750.984 101.053C750.682 100.087 750.26 99.0298 749.717 97.8811L725.545 48.3149L725.364 76.7217V80.3406V83.5976C725.364 89.1451 725.617 93.1272 726.126 95.5385C726.634 97.951 727.338 99.4287 728.234 99.9716C730.747 100.575 732.69 101.072 734.065 101.464C735.441 101.858 736.129 102.355 736.129 102.956C736.129 103.621 735.872 104.057 735.36 104.27C734.846 104.48 734.23 104.586 733.506 104.586C732.66 104.586 731.002 104.48 728.53 104.27C726.056 104.057 724.188 103.952 722.921 103.952C721.713 103.952 719.995 104.057 717.764 104.27C715.532 104.48 714.114 104.586 713.512 104.586C712.427 104.586 711.884 104.162 711.884 103.319C711.884 102.414 713.06 101.66 715.411 101.057C718.247 100.273 719.845 99.7605 720.206 99.5192C721.112 98.7954 721.73 96.3075 722.062 92.0553C722.392 87.8031 722.559 82.9629 722.559 77.5346V75.7251V74.1871V72.9205V71.8349V68.8493V66.4066C722.559 65.0207 722.514 62.9097 722.424 60.0735C722.333 57.2388 722.288 55.0674 722.288 53.5596C722.288 48.7961 721.261 45.9599 719.212 45.0552C716.86 44.3315 714.776 43.6392 712.97 42.9744C712.246 42.6728 711.884 42.1903 711.884 41.5268C711.884 40.9854 712.11 40.6084 712.561 40.3959C713.013 40.1848 713.603 40.0793 714.325 40.0793H715.411C717.582 40.0793 720.537 40.1848 724.278 40.3959C728.017 40.6084 730.427 40.7126 731.514 40.7126C732.479 40.7126 733.898 40.6084 735.768 40.3959C737.636 40.1848 739.053 40.0793 740.018 40.0793C741.648 40.0793 742.462 40.4439 742.462 41.1704C742.462 41.6571 741.736 42.2629 740.291 42.9895C738.843 43.7173 738.12 44.7783 738.12 46.1724C738.12 47.2032 738.454 48.6275 739.127 50.4452C739.555 51.598 740.165 52.9619 740.958 54.5369L757.846 90.1979C760.62 84.1568 762.731 79.5949 764.177 76.512C767.734 68.8397 770.748 62.2544 773.223 56.7549C776.357 49.6871 777.926 45.8489 777.926 45.2444C777.926 44.6399 777.546 43.9929 776.795 43.2965C776.039 42.6029 775.661 41.9833 775.661 41.4391C775.661 40.836 776.039 40.459 776.795 40.3068C777.546 40.1561 778.016 40.0793 778.197 40.0793C779.703 40.0793 781.997 40.1848 785.073 40.3959C788.148 40.6084 790.228 40.7126 791.312 40.7126C792.277 40.7126 793.334 40.6523 794.481 40.5316C797.314 40.2314 799.095 40.0793 799.816 40.0793C801.024 40.0793 801.628 40.533 801.628 41.4377C801.628 41.9216 800.814 42.4809 799.186 43.1142C797.557 43.7489 795.807 44.4288 793.936 45.1539C793.153 45.7584 792.624 48.0518 792.355 52.038C792.084 56.0242 791.947 60.8878 791.947 66.6245V73.3742V78.6751V81.9828V85.0177C791.947 90.1513 792.173 93.7893 792.624 95.9332C793.076 98.0785 793.786 99.4205 794.753 99.9647C797.286 100.569 799.246 101.068 800.633 101.46C802.019 101.854 802.714 102.381 802.714 103.045Z" fill="#1C3C6E"/>
<path d="M834.196 100.243H840.257C839.905 98.8612 839.667 96.4596 839.541 93.0354C839.416 89.6125 839.354 87.3302 839.354 86.1883C839.354 84.5077 839.35 82.6448 839.345 80.6024C839.339 78.5613 839.331 76.3406 839.318 73.9363L829.551 58.3724C827.752 55.5349 826.462 53.269 825.683 51.5788C824.543 49.0428 823.973 46.4754 823.973 43.8791H815.288C816.612 45.3883 817.843 47.0497 818.988 48.8605L835.009 74.3927L835.282 87.8593C835.282 90.3308 835.221 92.5008 835.101 94.3678C834.979 96.2362 834.679 98.195 834.196 100.243ZM818.908 40.8935C820.231 40.8935 822.224 40.7729 824.878 40.5316C827.532 40.2918 829.551 40.1698 830.939 40.1698C832.206 40.1698 832.988 40.2451 833.291 40.3959C833.593 40.5467 833.744 40.9251 833.744 41.5268C833.744 42.1903 832.749 42.7633 830.758 43.2458C828.768 43.7283 827.773 44.7838 827.773 46.4109C827.773 47.7995 829.64 51.6295 833.374 57.9022C835.48 61.4004 837.951 65.3812 840.781 69.8445C843.86 65.8048 846.969 61.7322 850.11 57.6308C854.941 51.0579 857.356 47.0771 857.356 45.6885C857.356 44.4219 856.27 43.6392 854.1 43.3363C851.929 43.0361 850.844 42.522 850.844 41.7982C850.844 41.1348 851.115 40.6989 851.656 40.4864C852.201 40.2753 852.863 40.1698 853.645 40.1698C854.31 40.1698 855.305 40.2918 856.632 40.5316C857.959 40.7729 858.984 40.8935 859.708 40.8935C860.611 40.8935 862.03 40.7729 863.96 40.5316C865.89 40.2918 867.337 40.1698 868.302 40.1698C869.69 40.1698 870.383 40.592 870.383 41.435C870.383 42.2177 869.988 42.7304 869.203 42.9703C866.118 43.875 863.516 45.4706 861.398 47.7584C860.792 48.3616 858.917 50.8619 855.77 55.258L842.7 72.7848V84.7997V88.324C842.7 92.1169 842.926 94.8736 843.379 96.5898C843.831 98.306 844.509 99.4068 845.415 99.8879C845.595 100.009 846.966 100.354 849.532 100.927C852.094 101.5 853.375 102.147 853.375 102.869C853.375 103.952 852.893 104.495 851.929 104.495C850.299 104.495 848.672 104.411 847.043 104.247C842.097 103.749 839.321 103.5 838.719 103.5C836.85 103.5 834.95 103.582 833.021 103.749C827.29 104.247 824.184 104.495 823.703 104.495C822.618 104.495 822.073 104.074 822.073 103.233C822.073 102.632 822.707 102.091 823.973 101.608C825.842 100.889 827.743 100.165 829.673 99.4438C830.455 98.7831 831 97.5357 831.302 95.7015C831.603 93.8661 831.755 92.1074 831.755 90.4227V74.8177L814.836 47.8598C813.811 46.1519 812.692 45.0223 811.49 44.4726C809.8 43.9243 808.472 43.45 807.508 43.0525C806.543 42.6577 806.062 42.1848 806.062 41.6338C806.062 41.0854 806.332 40.703 806.875 40.4905C807.418 40.2767 808.019 40.1698 808.686 40.1698C809.468 40.1698 811.579 40.3425 815.017 40.6879C816.404 40.825 817.701 40.8935 818.908 40.8935Z" fill="#1C3C6E"/>
<path d="M0 2.22729H868.881" stroke="#1C3C6E" stroke-width="2" stroke-miterlimit="10"/>
<path d="M0 142.094H868.881" stroke="#1C3C6E" stroke-width="2" stroke-miterlimit="10"/>
<path d="M293.953 198.75L280.753 178.6H286.103L296.053 194.6L306.303 178.6H311.353L298.153 198.75V214H293.953V198.75ZM331.28 208.45C331.28 209.517 331.313 210.517 331.38 211.45C331.446 212.383 331.48 213.233 331.48 214H327.78C327.78 213.367 327.763 212.733 327.73 212.1C327.696 211.467 327.68 210.817 327.68 210.15H327.58C327.313 210.717 326.93 211.267 326.43 211.8C325.963 212.333 325.396 212.817 324.73 213.25C324.063 213.65 323.313 213.967 322.48 214.2C321.646 214.467 320.746 214.6 319.78 214.6C318.246 214.6 316.913 214.367 315.78 213.9C314.68 213.433 313.763 212.783 313.03 211.95C312.296 211.117 311.746 210.117 311.38 208.95C311.046 207.75 310.88 206.45 310.88 205.05V190.6H314.78V204.65C314.78 206.617 315.213 208.167 316.08 209.3C316.946 210.433 318.296 211 320.13 211C321.396 211 322.48 210.783 323.38 210.35C324.313 209.917 325.063 209.3 325.63 208.5C326.23 207.7 326.663 206.75 326.93 205.65C327.23 204.55 327.38 203.333 327.38 202V190.6H331.28V208.45ZM355.313 196.45C354.48 195.45 353.58 194.733 352.613 194.3C351.646 193.833 350.58 193.6 349.413 193.6C348.113 193.6 346.963 193.833 345.963 194.3C344.963 194.733 344.13 195.35 343.463 196.15C342.83 196.95 342.346 197.883 342.013 198.95C341.68 199.983 341.513 201.1 341.513 202.3C341.513 203.5 341.696 204.633 342.063 205.7C342.463 206.733 342.996 207.65 343.663 208.45C344.363 209.25 345.196 209.883 346.163 210.35C347.13 210.783 348.213 211 349.413 211C351.98 211 353.963 210.033 355.363 208.1L358.263 210.85C357.13 212.15 355.796 213.1 354.263 213.7C352.73 214.3 351.113 214.6 349.413 214.6C347.613 214.6 345.963 214.3 344.463 213.7C342.963 213.1 341.68 212.25 340.613 211.15C339.58 210.05 338.763 208.75 338.163 207.25C337.596 205.75 337.313 204.1 337.313 202.3C337.313 200.533 337.596 198.9 338.163 197.4C338.763 195.9 339.596 194.6 340.663 193.5C341.73 192.4 342.996 191.55 344.463 190.95C345.963 190.317 347.613 190 349.413 190C351.146 190 352.78 190.3 354.313 190.9C355.88 191.5 357.246 192.433 358.413 193.7L355.313 196.45ZM379.434 196.45C378.601 195.45 377.701 194.733 376.734 194.3C375.767 193.833 374.701 193.6 373.534 193.6C372.234 193.6 371.084 193.833 370.084 194.3C369.084 194.733 368.251 195.35 367.584 196.15C366.951 196.95 366.467 197.883 366.134 198.95C365.801 199.983 365.634 201.1 365.634 202.3C365.634 203.5 365.817 204.633 366.184 205.7C366.584 206.733 367.117 207.65 367.784 208.45C368.484 209.25 369.317 209.883 370.284 210.35C371.251 210.783 372.334 211 373.534 211C376.101 211 378.084 210.033 379.484 208.1L382.384 210.85C381.251 212.15 379.917 213.1 378.384 213.7C376.851 214.3 375.234 214.6 373.534 214.6C371.734 214.6 370.084 214.3 368.584 213.7C367.084 213.1 365.801 212.25 364.734 211.15C363.701 210.05 362.884 208.75 362.284 207.25C361.717 205.75 361.434 204.1 361.434 202.3C361.434 200.533 361.717 198.9 362.284 197.4C362.884 195.9 363.717 194.6 364.784 193.5C365.851 192.4 367.117 191.55 368.584 190.95C370.084 190.317 371.734 190 373.534 190C375.267 190 376.901 190.3 378.434 190.9C380.001 191.5 381.367 192.433 382.534 193.7L379.434 196.45ZM386.605 193.6C387.805 192.367 389.222 191.467 390.855 190.9C392.522 190.3 394.205 190 395.905 190C399.372 190 401.872 190.817 403.405 192.45C404.938 194.083 405.705 196.567 405.705 199.9V209.95C405.705 210.617 405.738 211.317 405.805 212.05C405.872 212.75 405.955 213.4 406.055 214H402.305C402.172 213.467 402.088 212.883 402.055 212.25C402.055 211.583 402.055 211 402.055 210.5H401.955C401.188 211.7 400.155 212.683 398.855 213.45C397.588 214.217 396.055 214.6 394.255 214.6C393.055 214.6 391.922 214.45 390.855 214.15C389.822 213.85 388.905 213.417 388.105 212.85C387.338 212.25 386.722 211.517 386.255 210.65C385.788 209.783 385.555 208.783 385.555 207.65C385.555 205.717 386.055 204.2 387.055 203.1C388.055 202 389.288 201.183 390.755 200.65C392.255 200.117 393.855 199.783 395.555 199.65C397.288 199.517 398.872 199.45 400.305 199.45H401.805V198.75C401.805 197.05 401.288 195.767 400.255 194.9C399.255 194.033 397.838 193.6 396.005 193.6C394.738 193.6 393.488 193.817 392.255 194.25C391.055 194.65 389.988 195.283 389.055 196.15L386.605 193.6ZM397.905 202.75C395.405 202.75 393.422 203.1 391.955 203.8C390.488 204.5 389.755 205.65 389.755 207.25C389.755 208.717 390.238 209.767 391.205 210.4C392.205 211 393.438 211.3 394.905 211.3C396.038 211.3 397.022 211.117 397.855 210.75C398.722 210.35 399.438 209.833 400.005 209.2C400.572 208.567 401.005 207.833 401.305 207C401.605 206.133 401.772 205.217 401.805 204.25V202.75H397.905ZM444.249 184.85C443.549 183.717 442.615 182.9 441.449 182.4C440.282 181.867 439.065 181.6 437.799 181.6C436.865 181.6 435.949 181.717 435.049 181.95C434.149 182.183 433.332 182.533 432.599 183C431.899 183.467 431.332 184.083 430.899 184.85C430.465 185.617 430.249 186.517 430.249 187.55C430.249 188.35 430.365 189.067 430.599 189.7C430.865 190.3 431.282 190.85 431.849 191.35C432.415 191.85 433.182 192.317 434.149 192.75C435.115 193.183 436.299 193.617 437.699 194.05C439.065 194.483 440.382 194.95 441.649 195.45C442.949 195.95 444.082 196.583 445.049 197.35C446.049 198.117 446.832 199.083 447.399 200.25C447.999 201.383 448.299 202.817 448.299 204.55C448.299 206.317 447.949 207.85 447.249 209.15C446.549 210.45 445.615 211.533 444.449 212.4C443.315 213.233 441.999 213.85 440.499 214.25C438.999 214.683 437.449 214.9 435.849 214.9C434.815 214.9 433.782 214.8 432.749 214.6C431.715 214.433 430.715 214.167 429.749 213.8C428.815 213.4 427.932 212.9 427.099 212.3C426.265 211.667 425.549 210.9 424.949 210L428.549 207.05C429.315 208.35 430.382 209.333 431.749 210C433.115 210.667 434.565 211 436.099 211C436.999 211 437.899 210.867 438.799 210.6C439.732 210.333 440.565 209.95 441.299 209.45C442.032 208.917 442.632 208.267 443.099 207.5C443.565 206.733 443.799 205.85 443.799 204.85C443.799 203.75 443.615 202.867 443.249 202.2C442.882 201.5 442.315 200.9 441.549 200.4C440.782 199.9 439.815 199.45 438.649 199.05C437.482 198.65 436.115 198.183 434.549 197.65C433.282 197.25 432.115 196.8 431.049 196.3C429.982 195.767 429.049 195.133 428.249 194.4C427.482 193.633 426.865 192.733 426.399 191.7C425.965 190.633 425.749 189.367 425.749 187.9C425.749 186.2 426.082 184.717 426.749 183.45C427.415 182.183 428.315 181.133 429.449 180.3C430.582 179.433 431.865 178.783 433.299 178.35C434.732 177.917 436.232 177.7 437.799 177.7C439.799 177.7 441.615 178.017 443.249 178.65C444.915 179.25 446.399 180.317 447.699 181.85L444.249 184.85ZM467.332 193.9H460.432V205.6C460.432 206.367 460.449 207.083 460.482 207.75C460.515 208.383 460.649 208.95 460.882 209.45C461.115 209.917 461.465 210.3 461.932 210.6C462.399 210.867 463.065 211 463.932 211C464.499 211 465.082 210.933 465.682 210.8C466.282 210.667 466.849 210.467 467.382 210.2L467.532 213.75C466.865 214.05 466.115 214.267 465.282 214.4C464.482 214.533 463.715 214.6 462.982 214.6C461.582 214.6 460.465 214.417 459.632 214.05C458.799 213.683 458.149 213.167 457.682 212.5C457.215 211.833 456.899 211.017 456.732 210.05C456.599 209.05 456.532 207.95 456.532 206.75V193.9H451.432V190.6H456.532V183.95H460.432V190.6H467.332V193.9ZM492.51 208.45C492.51 209.517 492.543 210.517 492.61 211.45C492.677 212.383 492.71 213.233 492.71 214H489.01C489.01 213.367 488.993 212.733 488.96 212.1C488.927 211.467 488.91 210.817 488.91 210.15H488.81C488.543 210.717 488.16 211.267 487.66 211.8C487.193 212.333 486.627 212.817 485.96 213.25C485.293 213.65 484.543 213.967 483.71 214.2C482.877 214.467 481.977 214.6 481.01 214.6C479.477 214.6 478.143 214.367 477.01 213.9C475.91 213.433 474.993 212.783 474.26 211.95C473.527 211.117 472.977 210.117 472.61 208.95C472.277 207.75 472.11 206.45 472.11 205.05V190.6H476.01V204.65C476.01 206.617 476.443 208.167 477.31 209.3C478.177 210.433 479.527 211 481.36 211C482.627 211 483.71 210.783 484.61 210.35C485.543 209.917 486.293 209.3 486.86 208.5C487.46 207.7 487.893 206.75 488.16 205.65C488.46 204.55 488.61 203.333 488.61 202V190.6H492.51V208.45ZM519.343 209.85H519.243C518.51 211.183 517.343 212.317 515.743 213.25C514.177 214.15 512.343 214.6 510.243 214.6C508.61 214.6 507.077 214.3 505.643 213.7C504.21 213.067 502.96 212.2 501.893 211.1C500.86 210 500.043 208.7 499.443 207.2C498.843 205.7 498.543 204.067 498.543 202.3C498.543 200.533 498.843 198.9 499.443 197.4C500.043 195.9 500.877 194.6 501.943 193.5C503.01 192.4 504.293 191.55 505.793 190.95C507.327 190.317 509.01 190 510.843 190C512.543 190 514.093 190.35 515.493 191.05C516.927 191.75 518.177 192.733 519.243 194H519.343V176.2H523.243V214H519.343V209.85ZM519.343 202.3C519.343 201.067 519.143 199.933 518.743 198.9C518.377 197.833 517.827 196.917 517.093 196.15C516.36 195.35 515.477 194.733 514.443 194.3C513.443 193.833 512.31 193.6 511.043 193.6C509.777 193.6 508.627 193.833 507.593 194.3C506.593 194.733 505.727 195.35 504.993 196.15C504.26 196.917 503.693 197.833 503.293 198.9C502.927 199.933 502.743 201.067 502.743 202.3C502.743 203.533 502.927 204.683 503.293 205.75C503.693 206.783 504.26 207.7 504.993 208.5C505.727 209.267 506.593 209.883 507.593 210.35C508.627 210.783 509.777 211 511.043 211C512.31 211 513.443 210.783 514.443 210.35C515.477 209.883 516.36 209.267 517.093 208.5C517.827 207.7 518.377 206.783 518.743 205.75C519.143 204.683 519.343 203.533 519.343 202.3ZM530.859 190.6H534.759V214H530.859V190.6ZM529.959 181.45C529.959 180.683 530.225 180.017 530.759 179.45C531.325 178.883 532.009 178.6 532.809 178.6C533.609 178.6 534.275 178.883 534.809 179.45C535.375 180.017 535.659 180.683 535.659 181.45C535.659 182.283 535.392 182.967 534.859 183.5C534.325 184.033 533.642 184.3 532.809 184.3C531.975 184.3 531.292 184.033 530.759 183.5C530.225 182.967 529.959 182.283 529.959 181.45ZM541.17 202.3C541.17 200.467 541.487 198.8 542.12 197.3C542.754 195.8 543.62 194.517 544.72 193.45C545.82 192.35 547.137 191.5 548.67 190.9C550.204 190.3 551.87 190 553.67 190C555.47 190 557.137 190.3 558.67 190.9C560.204 191.5 561.52 192.35 562.62 193.45C563.72 194.517 564.587 195.8 565.22 197.3C565.854 198.8 566.17 200.467 566.17 202.3C566.17 204.133 565.854 205.8 565.22 207.3C564.587 208.8 563.72 210.1 562.62 211.2C561.52 212.267 560.204 213.1 558.67 213.7C557.137 214.3 555.47 214.6 553.67 214.6C551.87 214.6 550.204 214.3 548.67 213.7C547.137 213.1 545.82 212.267 544.72 211.2C543.62 210.1 542.754 208.8 542.12 207.3C541.487 205.8 541.17 204.133 541.17 202.3ZM545.37 202.3C545.37 203.533 545.554 204.683 545.92 205.75C546.32 206.783 546.887 207.7 547.62 208.5C548.354 209.267 549.22 209.883 550.22 210.35C551.254 210.783 552.404 211 553.67 211C554.937 211 556.07 210.783 557.07 210.35C558.104 209.883 558.987 209.267 559.72 208.5C560.454 207.7 561.004 206.783 561.37 205.75C561.77 204.683 561.97 203.533 561.97 202.3C561.97 201.067 561.77 199.933 561.37 198.9C561.004 197.833 560.454 196.917 559.72 196.15C558.987 195.35 558.104 194.733 557.07 194.3C556.07 193.833 554.937 193.6 553.67 193.6C552.404 193.6 551.254 193.833 550.22 194.3C549.22 194.733 548.354 195.35 547.62 196.15C546.887 196.917 546.32 197.833 545.92 198.9C545.554 199.933 545.37 201.067 545.37 202.3ZM572.708 207.85C573.474 208.817 574.308 209.583 575.208 210.15C576.141 210.717 577.308 211 578.708 211C579.308 211 579.908 210.933 580.508 210.8C581.141 210.667 581.708 210.45 582.208 210.15C582.708 209.85 583.108 209.483 583.408 209.05C583.708 208.583 583.858 208.033 583.858 207.4C583.858 206.767 583.708 206.25 583.408 205.85C583.141 205.45 582.774 205.117 582.308 204.85C581.841 204.55 581.308 204.317 580.708 204.15C580.108 203.983 579.491 203.833 578.858 203.7C577.758 203.467 576.708 203.2 575.708 202.9C574.708 202.6 573.824 202.217 573.058 201.75C572.324 201.25 571.724 200.617 571.258 199.85C570.824 199.083 570.608 198.1 570.608 196.9C570.608 195.767 570.858 194.767 571.358 193.9C571.858 193.033 572.524 192.317 573.358 191.75C574.191 191.183 575.124 190.75 576.158 190.45C577.191 190.15 578.258 190 579.358 190C581.024 190 582.558 190.333 583.958 191C585.391 191.667 586.508 192.75 587.308 194.25L584.058 196.4C583.558 195.567 582.891 194.9 582.058 194.4C581.258 193.867 580.274 193.6 579.108 193.6C578.574 193.6 578.024 193.667 577.458 193.8C576.924 193.933 576.441 194.133 576.008 194.4C575.574 194.667 575.208 195.017 574.908 195.45C574.641 195.85 574.508 196.317 574.508 196.85C574.508 197.35 574.658 197.783 574.958 198.15C575.291 198.483 575.724 198.783 576.258 199.05C576.824 199.317 577.458 199.55 578.158 199.75C578.891 199.95 579.641 200.117 580.408 200.25C581.441 200.45 582.424 200.717 583.358 201.05C584.291 201.35 585.108 201.767 585.808 202.3C586.508 202.833 587.058 203.5 587.458 204.3C587.858 205.1 588.058 206.083 588.058 207.25C588.058 208.583 587.791 209.717 587.258 210.65C586.724 211.583 586.008 212.35 585.108 212.95C584.241 213.517 583.241 213.933 582.108 214.2C581.008 214.467 579.874 214.6 578.708 214.6C576.708 214.6 574.974 214.3 573.508 213.7C572.074 213.067 570.774 211.917 569.608 210.25L572.708 207.85Z" fill="#1C3C6E"/>
</svg>
